<svg xmlns="http://www.w3.org/2000/svg" xmlns:xlink="http://www.w3.org/1999/xlink" viewBox="0 0 417.98 514.4"><defs><style>.cls-1{fill:#0585b6;}.cls-2{fill:url(#linear-gradient);}</style><linearGradient id="linear-gradient" y1="208.52" x2="417.04" y2="208.52" gradientUnits="userSpaceOnUse"><stop offset="0" stop-color="#1757a4"/><stop offset="1" stop-color="#14bed1"/></linearGradient></defs><title>Asset 1</title><g id="Layer_2" data-name="Layer 2"><g id="Layer_1-2" data-name="Layer 1"><path class="cls-1" d="M17.82,475.57c-5.94,0-11.88.06-17.82.06v37.79H7.13V502.3H17.82C36.34,502.3,36.29,475.57,17.82,475.57Zm0,20.2H7.13v-13.4H17.82C26.9,482.37,27,495.77,17.82,495.77Z"/><path class="cls-1" d="M54.3,474.87c-13.07,0-19.45,10-19.45,19.93S41,514.3,54.3,514.3s19.27-9.78,19.38-19.55S67.31,474.87,54.3,474.87Zm0,32.88c-8.92,0-12.26-6.64-12.43-12.84-.16-6.37,3.51-13.56,12.43-13.56s12.48,7.12,12.36,13.5C66.55,501.06,63.2,507.75,54.3,507.75Z"/><path class="cls-1" d="M101,500c7.18-1.47,9.56-6.71,9.56-11.88,0-6.55-4.7-12.48-13.62-12.53-6,0-12-.06-18-.06v37.85h7.12V500.78H93l11,12.64h8.48v-.48Zm-14.92-5.67v-12.1H97c4.49,0,6.48,3,6.48,6.05s-1.94,6.05-6.48,6.05Z"/><path class="cls-1" d="M114.88,475.63v6.48h12v31.31H134V482.11h12v-6.48Z"/><path class="cls-1" d="M176.2,490.32c-4.54-.55-8.43-1.47-8.43-4.75,0-2.82,2.54-5,7.83-5,4.11,0,7.67,2,9,4.21l5.67-2.92c-2.87-5.82-9-7.5-14.85-7.5-7,.05-14.64,3.23-14.64,11,0,8.49,7.13,10.53,14.85,11.45,5,.55,8.76,2,8.76,5.56,0,4.12-4.22,5.68-8.71,5.68s-9-1.84-10.63-6l-6,3.09c2.82,6.9,8.76,9.28,16.48,9.28,8.43,0,15.88-3.61,15.88-12C191.43,493.33,184.08,491.29,176.2,490.32Z"/><path class="cls-1" d="M225.41,503.76a13.86,13.86,0,0,1-9.5,3.83c-9.34,0-13-6.53-13-12.79s3.89-13.12,13-13.12a13,13,0,0,1,9.12,3.56l4.76-4.6a19.56,19.56,0,0,0-13.88-5.77c-13.66,0-20.09,10-20,19.93s6,19.5,20,19.5a20,20,0,0,0,14.36-5.62Z"/><path class="cls-1" d="M253.46,475.63h-7.77l-17,37.79h7.72l3.24-7.12h19.76l3.19,7.12h7.77Zm-10.9,24,7-16.1,7,16.1Z"/><path class="cls-1" d="M298.52,475.57v23.5L280,475.63h-5.77v37.79h7.12V487.94l19.88,25.54v-.06h4.42V475.57Z"/><path class="cls-1" d="M337.05,475.57v23.5l-18.52-23.44h-5.79v37.79h7.14V487.94l19.87,25.54v-.06h4.42V475.57Z"/><path class="cls-1" d="M378.93,482.54v-6.91h-28.3v37.79h28.3v-7H357.7v-8.52h20.47v-6.66H357.7v-8.68Z"/><path class="cls-1" d="M406.54,500c7.18-1.47,9.56-6.71,9.56-11.88,0-6.55-4.69-12.48-13.61-12.53-6,0-12-.06-18-.06v37.85h7.12V500.78h6.86l11,12.64H418v-.48Zm-14.91-5.67v-12.1h10.86c4.48,0,6.48,3,6.48,6.05s-2,6.05-6.48,6.05Z"/><path class="cls-2" d="M114.59,218c-3-.24-5.94-.44-8.87-.55-14.26,31.49-3.11,50.95,20.32,74.06,10.62,10.22,24,21.2,37.79,32v-45C133.69,260.72,113.08,242.21,114.59,218Zm36.34-73.11a11.73,11.73,0,1,0,0,11.72h12.9V144.87Zm22.93,221.47V50.7a20.06,20.06,0,1,0-7.8,0V366.34a20.06,20.06,0,1,0,7.8,0ZM157.71,31A12.26,12.26,0,1,1,170,43.29,12.26,12.26,0,0,1,157.71,31ZM170,398.26A12.26,12.26,0,1,1,182.22,386,12.26,12.26,0,0,1,170,398.26Zm10.31-62.16H175.8V287.69h4.47Zm0-179.49H175.8V144.89h4.47Zm8.08,0h-4.47V144.89h4.47Zm0-55.16h-4.47V67.19h4.47Zm0,240.82h-4.47V292h4.47Zm8.08-185.66H192V144.89h4.46Zm0,191.81H192V249.24h4.46Zm0-240.16H192V60.38h4.46Zm8.08,246.37h-4.46V57.86h4.46Zm8.08,2.84h-4.46V57.86h4.46Zm8.08-200.86h-4.46V144.89h4.46Zm0,194.64h-4.46v-102h4.46Zm0-241.88h-4.46V59.28h4.46Zm8.08,47.24h-4.46V144.89h4.46Zm0-52.69h-4.46V64.73h4.46Zm0,241.16h-4.46V293.87h4.46Zm8.09-188.47h-4.46V144.89h4.46Zm0-69.13h-4.46V81.21h4.46Zm-55.53,0h-4.46V81.18h4.46Zm55.53,251.45h-4.46V289.66h4.46Zm8.08-182.3h-4.46V144.89h4.46Zm0,176.12h-4.46V285.3h4.46ZM253,156.61h-4.46V144.89H253Zm0,169.87h-4.46V280.77H253Zm8.08-169.87h-4.46V144.89h4.46Zm0,163.54h-4.46V276h4.46Zm8.08-162.61H264.7V144h4.46Zm0,156.13H264.7V270.81h4.46Zm8.08-151.3h-4.46V139.12h4.46Zm0,144.62h-4.46V265.11h4.46Zm8.08-146.56h-4.46V141.06h4.46Zm0,139.59h-4.46V258.56h4.46Zm8.08-7.38h-4.46v-42.1h4.46Zm8.08-8.24H297V238.92h4.46Zm8.09-9.68h-4.46v-57h4.46Zm8.08-13.84h-4.46V224.22h4.46ZM11.15,106.74A11.15,11.15,0,0,1,0,95.59V81.74A81.83,81.83,0,0,1,81.74,0H95.59a11.15,11.15,0,0,1,0,22.3H81.74A59.5,59.5,0,0,0,22.3,81.74V95.59A11.15,11.15,0,0,1,11.15,106.74ZM95.59,417H81.74A81.83,81.83,0,0,1,0,335.3V321.45a11.15,11.15,0,0,1,22.3,0V335.3a59.5,59.5,0,0,0,59.44,59.44H95.59a11.15,11.15,0,0,1,0,22.3Zm310.3-310.3a11.15,11.15,0,0,1-11.15-11.15V81.74A59.5,59.5,0,0,0,335.3,22.3H321.45a11.15,11.15,0,1,1,0-22.3H335.3A81.83,81.83,0,0,1,417,81.74V95.59A11.15,11.15,0,0,1,405.89,106.74ZM335.3,417H321.45a11.15,11.15,0,1,1,0-22.3H335.3a59.5,59.5,0,0,0,59.44-59.44V321.45a11.15,11.15,0,0,1,22.3,0V335.3A81.83,81.83,0,0,1,335.3,417Z"/></g></g></svg>